# xmcd CD database file
#
# Track frame offsets:
#	150
#	22154
#	41524
#	65222
#	90243
#	113408
#	138870
#	166896
#	199944
#	227920
#	262278
#	303756
#	330286
#
# Disc length: 4685 seconds
#
# Revision: 1
# Processed by: cddbd v1.5.2PL0 Copyright (c) Steve Scherf et al.
# Submitted via: CDex 1.51
#
DISCID=ab124b0d
DTITLE=AGB Series - AGB Series - From Jump to Bop CD1
DYEAR=2006
DGENRE=Jazz
TTITLE0=Kenny Drew Jr Sextet: Undercurrent
TTITLE1=Bross Townsend's Band: Georgia Grind
TTITLE2=Duane Eubanks Sextet: Hi Fly
TTITLE3=Kenny Drew Jr Trio: Trinkle Tinkle
TTITLE4=David Bubba Brooks: Old Folks
TTITLE5=Kenny Drew Jr Trio: Serial Blues (Take 2)
TTITLE6=Robin Eubanks Sextet: Shorter Bu
TTITLE7=Buster Williams Quintet: Summertime
TTITLE8=Louis Hayes Quintet: Safari
TTITLE9=Kenny Drew Jr: Invierno Porteno
TTITLE10=Cody Moffett: Simone
TTITLE11=David Buba Brooks: A Ghost Of A Chance
TTITLE12=Kenny Drew Jr: With Prestige
EXTD=YEAR: 2006
EXTT0=
EXTT1=
EXTT2=
EXTT3=
EXTT4=
EXTT5=
EXTT6=
EXTT7=
EXTT8=
EXTT9=
EXTT10=
EXTT11=
EXTT12=
PLAYORDER=
